<?xml version="1.0" standalone="no"?><!DOCTYPE svg PUBLIC "-//W3C//DTD SVG 1.1//EN" "http://www.w3.org/Graphics/SVG/1.1/DTD/svg11.dtd"><svg t="1505801045650" class="icon" style="" viewBox="0 0 1024 1024" version="1.1" xmlns="http://www.w3.org/2000/svg" p-id="10499" xmlns:xlink="http://www.w3.org/1999/xlink" width="200" height="200"><defs><style type="text/css"></style></defs><path d="M259.898477 408.040609h8.66396c38.117766 0 72.771574 12.127919 103.95939 31.187817 5.19797-13.861929 10.395939-25.989848 17.325889-38.117766 3.46599-5.19797 5.19797-10.395939 8.663959-13.861929 3.46599-5.19797 6.929949-10.395939 12.127919-15.593909 8.663959-12.127919 19.059898-22.523858 31.187817-32.919797 3.46599-3.46599 6.929949-5.19797 10.395939-8.663959 5.19797-3.46599 10.395939-8.663959 15.593909-12.127919 41.583756-29.455838 93.563452-46.781726 147.275127-46.781726 143.811168 0 259.898477 116.08731 259.898477 259.898477 0 8.663959 0 15.593909-1.73198 24.257868 81.435533 22.523858 140.345178 95.295431 140.345178 183.660914a190.04467 190.04467 0 0 1-190.592893 190.592894H129.949239c-67.573604 0-121.285279-53.711675-121.28528-121.28528 0-57.177665 39.851777-103.959391 91.831472-117.821319C86.633503 662.741117 77.969543 633.285279 77.969543 600.365482c0-60.643655 29.455838-116.08731 74.503553-150.741117 20.791878-15.593909 43.315736-27.721827 69.305584-34.653807 5.19797-1.73198 10.395939-1.73198 15.593909-3.465989 5.19797-1.73198 12.127919-1.73198 17.325888-1.73198 1.73401-1.73198 3.46802-1.73198 5.2-1.73198" fill="#80D6FA" p-id="10500"></path><path d="M467.817259 316.209137c-5.19797 3.46599-10.395939 8.663959-15.593909 12.127919-3.46599 3.46599-6.929949 5.19797-10.395939 8.663959-10.395939 10.395939-22.523858 20.791878-31.187817 32.919797-3.46599 5.19797-8.663959 10.395939-12.127919 15.593909-3.46599 5.19797-6.929949 8.663959-8.663959 13.861929-6.929949 12.127919-13.861929 25.989848-19.059899 38.117766-29.455838-19.059898-65.841624-31.187817-103.959391-31.187817h-15.593908c-6.929949 0-12.127919 1.73198-17.325889 1.73198-5.19797 0-10.395939 1.73198-15.593908 3.46599-25.989848 6.929949-48.513706 17.325888-69.305584 32.919796-3.46599-12.127919-5.19797-25.989848-5.197969-39.851776 0-95.295431 77.969543-173.264975 173.264974-173.264975 65.841624 3.46802 119.553299 36.387817 150.741117 84.901523" fill="#FFE079" p-id="10501"></path><path d="M823.011168 936.501523H129.949239c-71.039594 0-129.949239-58.909645-129.949239-129.949239s58.909645-129.949239 129.949239-129.949238c5.19797 0 8.663959 3.46599 8.663959 8.663959S135.147208 693.928934 129.949239 693.928934c-62.375635 0-112.62335 50.247716-112.623351 112.62335S67.573604 919.173604 129.949239 919.173604h693.061929c100.493401 0 181.928934-81.435533 181.928934-181.928934 0-58.909645-29.455838-114.35533-76.237564-149.009137-3.46599-3.46599-5.19797-8.663959-1.73198-12.127919 3.46599-3.46599 8.663959-5.19797 12.127919-1.731979 53.711675 38.117766 84.899492 98.761421 84.899493 162.869035-1.729949 109.15736-91.829442 199.256853-200.986802 199.256853zM81.435533 641.949239c-3.46599 0-6.929949-3.46599-8.663959-6.92995-1.73198-12.127919-3.46599-24.257868-3.46599-36.385786 0-109.15736 90.097462-199.254822 199.254822-199.254823 55.445685 0 105.691371 22.523858 143.811168 62.375635 3.46599 3.46599 3.46599 8.663959 0 12.127919-3.46599 3.46599-8.663959 3.46599-12.127919 0-34.653807-36.385787-81.435533-57.177665-131.681218-57.177665-100.493401 0-181.928934 81.435533-181.928934 181.928934 0 10.395939 1.73198 22.523858 3.465989 32.919796-0.00203 5.19797-3.46599 8.663959-8.663959 10.39594z m784.893401-34.653808h-1.73198c-5.19797-1.73198-6.929949-5.19797-5.197969-10.395939 5.19797-20.791878 8.663959-43.315736 8.663959-67.573604 0-138.613198-112.62335-251.234518-251.234518-251.234517-83.167513 0-161.137056 41.583756-207.918781 110.88934-3.46599 3.46599-8.663959 5.19797-12.127919 1.731979-3.46599-3.46599-5.19797-8.663959-1.73198-12.127918 50.247716-74.503553 133.415228-119.553299 223.512691-119.5533 147.275127 0 268.562437 121.285279 268.562436 268.562437 0 24.257868-3.46599 48.513706-10.395939 71.039594-3.470051 6.929949-6.936041 8.661929-10.4 8.661928zM152.473096 572.643655h-1.731979c-5.19797-1.73198-6.929949-6.929949-5.19797-10.395939 8.663959-27.721827 25.989848-51.979695 50.247716-69.305584 3.46599-3.46599 8.663959-1.73198 12.127919 1.73198 3.46599 3.46599 1.73198 8.663959-1.73198 12.127918-20.791878 13.861929-36.385787 36.385787-43.315736 60.643655-3.46599 3.463959-6.93198 5.19797-10.39797 5.19797zM805.685279 537.989848c-5.19797 0-8.663959-3.46599-8.663959-8.66396 0-34.653807-10.395939-69.305584-29.455838-98.761421-3.46599-3.46599-1.73198-8.663959 1.73198-12.127919 3.46599-3.46599 8.663959-1.73198 12.127919 1.73198 20.791878 32.919797 32.919797 69.305584 32.919797 109.15736 0.004061 5.19797-3.461929 8.663959-8.659899 8.66396zM77.969543 416.704569H8.663959c-5.19797 0-8.663959-3.46599-8.663959-8.66396 0-5.19797 3.46599-8.663959 8.663959-8.663959H77.969543c5.19797 0 8.663959 3.46599 8.66396 8.663959 0 5.19797-3.46599 8.663959-8.66396 8.66396z m72.771574-34.653808h-1.73198c-5.19797-1.73198-6.929949-5.19797-6.929949-10.395939 17.325888-84.899492 91.831472-145.543147 178.462944-145.543147 39.851777 0 77.969543 12.127919 109.15736 36.385787 3.46599 3.46599 5.19797 8.663959 1.73198 12.127919-3.46599 3.46599-8.663959 5.19797-12.127919 1.731979-29.455838-20.791878-62.375635-32.919797-98.761421-32.919797-77.969543 0-145.543147 55.445685-161.137056 131.681219-1.73401 3.46599-5.19797 6.93198-8.663959 6.931979z m-53.711675-58.909644H93.563452l-31.187817-13.861929c-5.19797-1.73198-6.929949-6.929949-5.19797-12.127919 1.73198-5.19797 6.929949-6.929949 12.127919-5.19797l31.187817 13.861929c5.19797 1.73198 6.929949 6.929949 5.19797 12.127919-3.463959 3.463959-5.19797 5.19797-8.661929 5.19797z m395.045685-77.969543c-1.73198 0-5.19797 0-6.929949-1.73198-3.46599-3.46599-3.46599-8.663959 0-12.127919l48.513705-48.513705c3.46599-3.46599 8.663959-3.46599 12.127919 0s3.46599 8.663959 0 12.127918l-48.513706 48.513706c0 1.73198-3.46599 1.73198-5.197969 1.73198z m-343.06599 0c-1.73198 0-5.19797 0-6.929949-1.73198L93.563452 194.923858c-3.46599-3.46599-3.46599-8.663959 0-12.127919s8.663959-3.46599 12.127919 0l48.513705 48.513706c3.46599 3.46599 3.46599 8.663959 0 12.127918 0.00203 1.73401-3.463959 1.73401-5.195939 1.734011z m77.969543-51.979696c-3.46599 0-6.929949-1.73198-8.663959-5.197969l-13.861929-31.187818c-1.73198-5.19797 0-8.663959 5.197969-12.127918 5.19797-1.73198 8.663959 0 12.127919 5.197969l13.861929 31.187817c1.73198 5.19797 0 8.663959-5.197969 12.127919h-3.46396z m187.126904 0h-3.46599c-5.19797-1.73198-6.929949-6.929949-5.19797-12.127919l13.861929-31.187817c1.73198-5.19797 6.929949-6.929949 12.127919-5.197969 5.19797 1.73198 6.929949 6.929949 5.19797 12.127918l-13.861929 31.187818c-3.463959 1.73198-5.19797 5.19797-8.661929 5.197969z m-93.563452-19.059898c-5.19797 0-8.663959-3.46599-8.663959-8.66396V96.162437c0-5.19797 3.46599-8.663959 8.663959-8.66396 5.19797 0 8.663959 3.46599 8.663959 8.66396v69.305583c-0.00203 5.19797-3.46599 8.663959-8.663959 8.66396z" fill="#51565F" p-id="10502"></path></svg>