<?xml version="1.0" standalone="no"?><!DOCTYPE svg PUBLIC "-//W3C//DTD SVG 1.1//EN" "http://www.w3.org/Graphics/SVG/1.1/DTD/svg11.dtd"><svg t="1505809098793" class="icon" style="" viewBox="0 0 1024 1024" version="1.1" xmlns="http://www.w3.org/2000/svg" p-id="10754" xmlns:xlink="http://www.w3.org/1999/xlink" width="200" height="200"><defs><style type="text/css"></style></defs><path d="M702.914789 147.524648c95.456886 0 173.558529 78.101643 173.558529 173.558529S798.371675 494.64374 702.914789 494.64374s-173.558529-78.101643-173.558529-173.558529 78.101643-173.560563 173.558529-173.560563" fill="#FFE079" p-id="10755"></path><path d="M286.372692 164.881925v86.780281H112.814163V164.881925c0-48.5959 38.182348-86.780282 86.780281-86.780282S286.372692 116.283991 286.372692 164.881925" fill="#ECF4F7" p-id="10756"></path><path d="M112.814163 564.066745V251.660172H286.372692v402.656683c62.481315 31.240657 104.135524 95.456886 104.135524 170.088701 0 105.870438-85.043334 190.915806-190.915806 190.915806S8.678638 930.278028 8.678638 824.405556c0-74.629781 41.65421-138.848044 104.135525-170.088701v-90.25011z" fill="#FF7474" p-id="10757"></path><path d="M199.59241 1024C90.25011 1024 0 933.747856 0 824.405556c0-72.894867 39.919296-140.582958 104.135524-175.295477V251.660172c0-5.206776 3.471862-8.678638 8.678639-8.678638h104.135524c5.206776 0 8.678638 3.471862 8.678638 8.678638 0 5.206776-3.471862 8.678638-8.678638 8.678639H121.490767v86.780281h26.033881c5.206776 0 8.678638 3.471862 8.678638 8.678639 0 5.206776-3.471862 8.678638-8.678638 8.678638h-26.033881v86.780281h26.033881c5.206776 0 8.678638 3.471862 8.678638 8.678639s-3.471862 8.678638-8.678638 8.678638h-26.033881v86.780282h26.033881c5.206776 0 8.678638 3.471862 8.678638 8.678638s-3.471862 8.678638-8.678638 8.678638h-26.033881v81.573506c0 3.471862-1.734914 6.94169-5.206776 6.94169-60.7464 31.240657-98.928748 93.721972-98.928748 161.410062 0 100.663662 81.573505 182.237167 182.237167 182.237168s182.237167-81.573505 182.237168-182.237168c0-69.423005-38.182348-130.169405-98.928748-161.410062-3.471862-1.734914-5.206776-5.206776-5.206777-6.94169V164.881925c0-43.389124-34.712519-78.101643-78.101643-78.101643s-78.101643 34.712519-78.101643 78.101643V182.237167c0 5.206776-3.471862 8.678638-8.678638 8.678639-5.206776 0-8.678638-3.471862-8.678639-8.678639v-17.355242c0-52.067762 43.389124-95.456886 95.456886-95.456886s95.456886 43.389124 95.456886 95.456886v484.230188c64.216229 34.712519 104.135524 102.40061 104.135525 175.295477 0.004068 109.340267-90.248076 199.59241-199.590377 199.59241z m0-104.135524c-5.206776 0-8.678638-3.471862-8.678638-8.678639 0-5.206776 3.471862-8.678638 8.678638-8.678638 43.389124 0 78.101643-34.712519 78.101643-78.101643 0-5.206776 3.471862-8.678638 8.678639-8.678638 5.206776 0 8.678638 3.471862 8.678638 8.678638 0 52.067762-43.391158 95.45892-95.45892 95.45892zM702.914789 642.168388c-5.206776 0-8.678638-3.471862-8.678638-8.678638v-69.423005c0-5.206776 3.471862-8.678638 8.678638-8.678638s8.678638 3.471862 8.678638 8.678638v69.423005c0 5.20881-3.471862 8.678638-8.678638 8.678638z m105.870438-55.53759c-3.471862 0-6.94169-1.734914-8.678638-5.206776l-13.885415-31.240657V546.711502c0-3.471862 1.734914-6.94169 5.206777-8.678638 5.206776-1.734914 8.678638 0 12.148466 5.206776l13.885415 31.240658v3.471862c0 3.471862-1.734914 6.94169-5.206777 8.678638h-3.469828z m-211.740877 0h-3.471862c-3.471862-1.734914-5.206776-5.206776-5.206776-8.678638v-3.471862l13.885415-31.240658c1.734914-5.206776 6.94169-6.94169 12.148466-5.206776 3.471862 1.734914 5.206776 5.206776 5.206776 8.678638v3.471863l-13.885414 31.240657c-1.734914 3.469828-5.206776 5.206776-8.676605 5.206776z m-114.549076-36.447433c-1.734914 0-5.206776 0-6.941691-1.734915-1.734914-1.734914-1.734914-3.471862-1.734914-6.94169s0-5.206776 1.734914-6.94169l48.5959-48.5959c3.471862-3.471862 8.678638-3.471862 12.148467 0 1.734914 1.734914 1.734914 3.471862 1.734914 6.94169s0 5.206776-1.734914 6.94169l-48.5959 48.5959c-1.736948 1.734914-3.471862 1.734914-5.206776 1.734915z m440.83903 0c-1.734914 0-5.206776 0-6.94169-1.734915l-48.5959-48.5959c-1.734914-1.734914-1.734914-3.471862-1.734915-6.94169s0-5.206776 1.734915-6.94169c3.471862-3.471862 8.678638-3.471862 12.148466 0l48.5959 48.5959c1.734914 1.734914 1.734914 3.471862 1.734914 6.94169s0 5.206776-1.734914 6.94169c-1.734914 1.734914-1.734914 1.734914-5.206776 1.734915zM702.914789 503.322379c-100.663662 0-182.237167-81.573505-182.237168-182.237168s81.573505-182.237167 182.237168-182.237167 182.237167 81.573505 182.237167 182.237167-81.573505 182.237167-182.237167 182.237168z m0-347.119093c-90.25011 0-164.881925 74.629781-164.881925 164.881925s74.629781 164.881925 164.881925 164.881925 164.881925-74.629781 164.881925-164.881925S793.164899 156.203286 702.914789 156.203286zM446.04784 435.634288c-3.471862 0-6.94169-1.734914-8.678638-5.206776v-3.471862c0-3.471862 1.734914-6.94169 5.206776-8.678639l31.240657-13.885414c5.206776-1.734914 8.678638 0 12.148467 5.206776v3.471862c0 3.471862-1.734914 6.94169-5.206776 8.678638l-31.240658 13.885415h-3.469828z m513.733897 0h-3.471862l-31.240657-13.885415c-3.471862-1.734914-5.206776-5.206776-5.206776-8.678638v-3.471862c1.734914-5.206776 6.94169-6.94169 12.148466-5.206776l31.240658 13.885414c3.471862 1.734914 5.206776 5.206776 5.206776 8.678639v3.471862c-1.73288 3.469828-5.204742 5.206776-8.676605 5.206776zM390.508216 329.761816c-5.206776 0-8.678638-3.471862-8.678638-8.678639 0-5.206776 3.471862-8.678638 8.678638-8.678638h69.423005c5.206776 0 8.678638 3.471862 8.678638 8.678638 0 5.206776-3.471862 8.678638-8.678638 8.678639H390.508216z m624.813146 0h-69.423005c-5.206776 0-8.678638-3.471862-8.678639-8.678639 0-5.206776 3.471862-8.678638 8.678639-8.678638H1015.321362c5.206776 0 8.678638 3.471862 8.678638 8.678638 0 5.20881-3.471862 8.678638-8.678638 8.678639z m-88.515196-93.721972c-3.471862 0-6.94169-1.734914-8.678638-5.206776v-3.471863c0-3.471862 1.734914-6.94169 5.206776-8.678638l31.240657-13.885414c5.206776-1.734914 8.678638 0 12.148467 5.206776v3.471862c0 3.471862-1.734914 6.94169-5.206776 8.678638l-31.240658 13.885415h-3.469828z m-447.782754 0h-3.471862l-31.240658-13.885415c-3.471862-1.734914-5.206776-5.206776-5.206776-8.678638v-3.471862c1.734914-5.206776 6.94169-6.94169 12.148467-5.206776l31.240657 13.885414c3.471862 1.734914 5.206776 5.206776 5.206776 8.678638v3.471863c-3.469828 3.471862-5.204742 5.206776-8.676604 5.206776z m395.714992-78.101643c-1.734914 0-5.206776 0-6.94169-1.734915-1.734914-1.734914-1.734914-3.471862-1.734915-6.94169 0-3.471862 0-5.206776 1.734915-6.94169L916.392614 93.721972c3.471862-3.471862 8.678638-3.471862 12.148466 0 1.734914 1.734914 1.734914 3.471862 1.734914 6.94169 0 3.471862 0 5.206776-1.734914 6.94169L879.94518 156.203286c0 1.734914-3.471862 1.734914-5.206776 1.734915z m-343.64723 0c-1.734914 0-5.206776 0-6.941691-1.734915l-48.5959-48.5959c-1.734914-1.734914-1.734914-3.471862-1.734914-6.94169 0-3.471862 0-5.206776 1.734914-6.94169 3.471862-3.471862 8.678638-3.471862 12.148467 0l48.5959 48.5959c1.734914 1.734914 1.734914 3.471862 1.734914 6.94169 0 3.471862 0 5.206776-1.734914 6.94169-1.734914 1.734914-3.471862 1.734914-5.206776 1.734915z m78.101643-52.067763c-3.471862 0-6.94169-1.734914-8.678638-5.206776l-13.885415-31.240657v-3.471862c0-3.471862 1.734914-6.94169 5.206776-8.678639 5.206776-1.734914 8.678638 0 12.148467 5.206777l13.885414 31.240657v3.471862c0 3.471862-1.734914 6.94169-5.206776 8.678638h-3.469828z m187.443944 0h-3.471862c-3.471862-1.734914-5.206776-5.206776-5.206777-8.678638v-3.471862l13.885415-31.240657c1.734914-5.206776 6.94169-6.94169 12.148466-5.206777 3.471862 1.734914 5.206776 5.206776 5.206777 8.678639v3.471862l-13.885415 31.240657c-3.469828 1.736948-5.204742 5.206776-8.676604 5.206776z m-93.721972-19.090156c-5.206776 0-8.678638-3.471862-8.678638-8.678639V8.678638c0-5.206776 3.471862-8.678638 8.678638-8.678638s8.678638 3.471862 8.678638 8.678638V78.101643c0 5.206776-3.471862 8.678638-8.678638 8.678639z" fill="#51565F" p-id="10758"></path></svg>